<svg id="Layer_1" data-name="Layer 1" xmlns="http://www.w3.org/2000/svg" viewBox="0 0 504.91 369.96"><defs><style>.cls-1,.cls-2{fill:#fff;}.cls-2,.cls-4,.cls-6,.cls-8{stroke:#000;}.cls-2,.cls-3,.cls-4,.cls-5,.cls-6,.cls-8{stroke-miterlimit:10;}.cls-3,.cls-4,.cls-5,.cls-6,.cls-8{fill:none;}.cls-3{stroke:#8986ac;stroke-width:2px;}.cls-4{stroke-width:0.75px;}.cls-5{stroke:#97494c;}.cls-5,.cls-6{stroke-width:0.5px;}.cls-7{fill:#97494c;}.cls-8{stroke-width:1.02px;}</style></defs><rect class="cls-1" width="504.91" height="369.96"/><circle class="cls-2" cx="400.51" cy="72.08" r="23.67"/><path d="M437.65,68.92a4.46,4.46,0,0,1,0-8.89,4.89,4.89,0,0,1,3.43,1.4l-.53.82A4.23,4.23,0,0,0,437.63,61a3.5,3.5,0,0,0,0,6.94,4.29,4.29,0,0,0,2.91-1.28l.58.73v0A4.75,4.75,0,0,1,437.65,68.92Z"/><path d="M445.06,68a3.5,3.5,0,0,0,2-.66l.3.81a3.94,3.94,0,0,1-2.29.73,2.9,2.9,0,0,1-3-3.14c0-2.17,1.32-3.24,2.93-3.24,2,0,2.83,1.29,2.83,3.44h-4.76A2,2,0,0,0,445.06,68Zm-2-2.88h3.75A1.8,1.8,0,0,0,445,63.33,2,2,0,0,0,443.08,65.11Z"/><path d="M453.38,65.2c0-1.3-.53-1.78-1.42-1.78a3.36,3.36,0,0,0-2,1.14v4.22h-1V62.59h1v.86a3.21,3.21,0,0,1,2-1,2.19,2.19,0,0,1,2.35,2.5v3.79h-1Z"/><path d="M457.76,68.81a1.58,1.58,0,0,1-1.15-.46,2.59,2.59,0,0,1-.7-1.79V63.42H455v-.83h.93V61.25l1-.66v2h1.84v.83H456.9v3a1.9,1.9,0,0,0,.36,1.1.87.87,0,0,0,.57.3,1.92,1.92,0,0,0,.94-.48l.21.9A1.68,1.68,0,0,1,457.76,68.81Z"/><path d="M462.43,68a3.49,3.49,0,0,0,2-.66l.3.81a3.92,3.92,0,0,1-2.29.73,2.89,2.89,0,0,1-3-3.14c0-2.17,1.32-3.24,2.93-3.24,2,0,2.83,1.29,2.83,3.44h-4.77A2.05,2.05,0,0,0,462.43,68Zm-2-2.88h3.74a1.79,1.79,0,0,0-1.83-1.78A2,2,0,0,0,460.45,65.11Z"/><path d="M469.16,63.44c-.66,0-1.24.58-1.84,1.26h0v4.09h-1V62.59h1v.92a2.78,2.78,0,0,1,1.87-1,1.24,1.24,0,0,1,.74.17l-.12,1.12A1,1,0,0,0,469.16,63.44Z"/><path d="M436.94,80h-2v3.17h-1.07V74.6h3a2.63,2.63,0,0,1,2.78,2.72A2.7,2.7,0,0,1,436.94,80Zm0-4.4h-2v3.45h1.94a1.8,1.8,0,0,0,1.8-1.72A1.66,1.66,0,0,0,437,75.61Z"/><path d="M443.49,83.27a2.84,2.84,0,0,1-2.9-3.16,2.91,2.91,0,1,1,5.79,0A2.82,2.82,0,0,1,443.49,83.27Zm0-5.44a2.28,2.28,0,0,0,0,4.5,2.28,2.28,0,0,0,0-4.5Z"/><path d="M449.82,83.27a4.25,4.25,0,0,1-2.42-.87l.21-.89a3.72,3.72,0,0,0,2.21.9c.6,0,1.63-.22,1.63-1s-1-.9-1.59-.9c-.87,0-2.62-.27-2.62-1.62,0-1.66,1.69-2,2.62-2a3.31,3.31,0,0,1,2.27.76l-.2.88a3.37,3.37,0,0,0-2.07-.79c-.66,0-1.68.22-1.68,1.12,0,.59,1.12.78,1.68.78.91,0,2.57.3,2.57,1.77S450.64,83.27,449.82,83.27Z"/><path d="M454.5,75.79a.59.59,0,0,1-.58-.61.58.58,0,1,1,1.16,0A.59.59,0,0,1,454.5,75.79ZM454,77h1v6.19h-1Z"/><path d="M458.84,83.21a1.58,1.58,0,0,1-1.15-.46A2.59,2.59,0,0,1,457,81V77.82h-.93V77H457V75.65l1-.66v2h1.84v.83H458v3a1.9,1.9,0,0,0,.36,1.1.87.87,0,0,0,.57.3,1.92,1.92,0,0,0,.94-.48l.21.9A1.68,1.68,0,0,1,458.84,83.21Z"/><path d="M461.88,75.79a.59.59,0,0,1-.58-.61.58.58,0,1,1,1.16,0A.59.59,0,0,1,461.88,75.79Zm-.5,1.2h1v6.19h-1Z"/><path d="M466.54,83.27a2.84,2.84,0,0,1-2.9-3.16,2.91,2.91,0,1,1,5.79,0A2.82,2.82,0,0,1,466.54,83.27Zm0-5.44a2.28,2.28,0,0,0,0,4.5,2.28,2.28,0,0,0,0-4.5Z"/><path d="M474.88,79.6c0-1.3-.53-1.78-1.41-1.78a3.38,3.38,0,0,0-2,1.14v4.22h-1V77h1v.86a3.24,3.24,0,0,1,2-1,2.19,2.19,0,0,1,2.35,2.5v3.79h-1Z"/><path d="M437.87,183.32h-.77v-2h-1.68v-.8h1.68v-2h.77v2h1.68v.8h-1.68Z"/><path d="M443.17,184.7a3.6,3.6,0,0,1-2.54-.79l.37-.73a3.09,3.09,0,0,0,2.19.64c1.41,0,2.58-1.33,2.58-3.36v-.24a3.25,3.25,0,0,1-2.71,1.45,2.71,2.71,0,0,1-2.82-2.72,2.88,2.88,0,0,1,3.15-2.81c2,0,3.28,1.74,3.28,4.31S445,184.7,443.17,184.7Zm.25-7.65c-1.17,0-2.31.43-2.31,1.93a1.89,1.89,0,0,0,2,1.83,2.85,2.85,0,0,0,2.5-1.77A2.23,2.23,0,0,0,443.42,177.05Z"/><path d="M450.87,184.7c-1.78,0-3.43-1.54-3.43-4.18,0-2.87,1.65-4.39,3.43-4.39s3.44,1.52,3.44,4.39C454.31,183.16,452.65,184.7,450.87,184.7Zm0-7.64c-1.32,0-2.44,1.24-2.44,3.46,0,2,1.12,3.25,2.44,3.25s2.43-1.25,2.43-3.25C453.3,178.31,452.19,177.06,450.87,177.06Z"/><path d="M457.24,180a1.87,1.87,0,1,1,2.1-1.84A2,2,0,0,1,457.24,180Zm0-3a1.16,1.16,0,1,0,1.15,1.17A1.15,1.15,0,0,0,457.24,177Z"/><path d="M433.38,285.47h3.31v.84h-3.31Z"/><path d="M440.34,289.35a3.61,3.61,0,0,1-2.55-.79l.37-.73a3.09,3.09,0,0,0,2.19.64c1.41,0,2.58-1.33,2.58-3.36v-.24a3.25,3.25,0,0,1-2.71,1.45,2.71,2.71,0,0,1-2.82-2.72,2.88,2.88,0,0,1,3.15-2.81c2,0,3.28,1.74,3.28,4.31S442.19,289.35,440.34,289.35Zm.24-7.65c-1.17,0-2.31.43-2.31,1.93a1.89,1.89,0,0,0,2,1.83,2.85,2.85,0,0,0,2.5-1.77A2.23,2.23,0,0,0,440.58,281.7Z"/><path d="M448,289.35c-1.78,0-3.43-1.54-3.43-4.18,0-2.87,1.65-4.39,3.43-4.39s3.44,1.52,3.44,4.39C451.47,287.81,449.81,289.35,448,289.35Zm0-7.64c-1.32,0-2.44,1.24-2.44,3.46,0,2,1.12,3.25,2.44,3.25s2.43-1.25,2.43-3.25C450.46,283,449.35,281.71,448,281.71Z"/><path d="M454.4,284.66a1.87,1.87,0,1,1,2.1-1.84A2,2,0,0,1,454.4,284.66Zm0-3a1.16,1.16,0,1,0,1.15,1.16A1.15,1.15,0,0,0,454.4,281.66Z"/><polyline class="cls-3" points="372.36 91.27 77.12 91.27 77.12 36.7"/><polyline class="cls-4" points="77.12 44.28 98.39 44.28 98.39 91.27 309.13 91.27 309.13 44.28 329.92 44.28 329.92 91.27 368.25 91.27"/><line class="cls-5" x1="77.12" y1="94.55" x2="308.35" y2="94.55"/><line class="cls-6" x1="77.12" y1="98.72" x2="98.39" y2="98.72"/><path d="M61.84,121.27h-2v3.17H58.78v-8.58h3a2.63,2.63,0,0,1,2.78,2.73A2.69,2.69,0,0,1,61.84,121.27Zm0-4.4h-2v3.46h1.94a1.8,1.8,0,0,0,1.8-1.73A1.66,1.66,0,0,0,61.87,116.87Z"/><path d="M70,123.61a3.28,3.28,0,0,1-2,.91,2.45,2.45,0,0,1-1.39-.39,2.36,2.36,0,0,1-.92-1.81v-4.07h1v4a1.48,1.48,0,0,0,.47,1.11,1.67,1.67,0,0,0,.91.29,3.47,3.47,0,0,0,2-1.11v-4.24h1v6.19H70Z"/><path d="M72.55,115.59h1v8.85h-1Z"/><path d="M77.4,124.54a4.19,4.19,0,0,1-2.41-.88l.2-.89a3.72,3.72,0,0,0,2.21.9c.6,0,1.63-.21,1.63-1s-1-.9-1.58-.9c-.88,0-2.63-.28-2.63-1.62,0-1.67,1.69-2,2.63-2a3.34,3.34,0,0,1,2.26.76l-.2.89a3.35,3.35,0,0,0-2.06-.79c-.66,0-1.68.21-1.68,1.11,0,.59,1.11.78,1.68.78.91,0,2.56.3,2.56,1.78S78.23,124.54,77.4,124.54Z"/><path d="M83.8,123.65a3.49,3.49,0,0,0,2-.66l.3.81a3.91,3.91,0,0,1-2.29.74,2.9,2.9,0,0,1-3-3.15c0-2.17,1.32-3.23,2.92-3.23,2,0,2.83,1.28,2.83,3.44H81.79A2,2,0,0,0,83.8,123.65Zm-2-2.88h3.74A1.79,1.79,0,0,0,83.72,119,2,2,0,0,0,81.82,120.77Z"/><path d="M95.84,124.46l-1.69-4.66-1.62,4.66h-.77l-2-6.21h1l1.43,4.5,1.61-4.47h.75l1.66,4.53,1.34-4.56h1l-1.87,6.21Z"/><path d="M100.26,117.05a.59.59,0,0,1-.58-.61.59.59,0,1,1,1.17,0A.6.6,0,0,1,100.26,117.05Zm-.49,1.2h1v6.19h-1Z"/><path d="M106.47,124a2.84,2.84,0,0,1-1.6.59,2.91,2.91,0,0,1-2.88-3.09,3.08,3.08,0,0,1,2.85-3.38,2.73,2.73,0,0,1,1.63.55v-3h1v8.85h-1ZM104.9,119a2.18,2.18,0,0,0-2,2.41,2,2,0,0,0,2,2.18,2.22,2.22,0,0,0,1.57-.84l0-3A2.33,2.33,0,0,0,104.9,119Z"/><path d="M111.17,124.48A1.57,1.57,0,0,1,110,124a2.57,2.57,0,0,1-.7-1.79v-3.14h-.94v-.83h.94v-1.34l1-.66v2h1.85v.83H110.3v3a2,2,0,0,0,.36,1.1.91.91,0,0,0,.58.3,1.91,1.91,0,0,0,.93-.47l.22.89A1.7,1.7,0,0,1,111.17,124.48Z"/><path d="M117.61,120.87c0-.82-.16-1.28-.48-1.52a1.38,1.38,0,0,0-.9-.27,3.49,3.49,0,0,0-2,1.15v4.21h-1v-8.85h1v3.54a3.25,3.25,0,0,1,2-1,2.38,2.38,0,0,1,1.34.33,2.42,2.42,0,0,1,1,2.16v3.79h-1Z"/><circle cx="76.92" cy="98.72" r="1.14"/><circle cx="98.72" cy="98.72" r="1.14"/><circle class="cls-7" cx="76.92" cy="94.55" r="1.14"/><circle class="cls-7" cx="307.95" cy="94.55" r="1.14"/><path d="M56.37,94.88c-1.77,0-3.43-1.55-3.43-4.19,0-2.86,1.66-4.39,3.43-4.39s3.45,1.53,3.45,4.39C59.82,93.33,58.16,94.88,56.37,94.88Zm0-7.64c-1.32,0-2.43,1.23-2.43,3.45,0,2,1.11,3.25,2.43,3.25s2.44-1.24,2.44-3.25C58.81,88.49,57.69,87.24,56.37,87.24Z"/><path d="M63.81,94.79l-3.32-8.48v-.1h1.06l2.72,7,2.66-7h1v.1l-3.27,8.48Z"/><path d="M53.9,47.6l-3.33-8.48V39h1.06l2.72,7L57,39h1v.11L54.77,47.6Z"/><path d="M61.48,42.22a2.12,2.12,0,0,0-2,2.31,2.07,2.07,0,0,0,2,2.19A3,3,0,0,0,63.27,46l.38.8a3.57,3.57,0,0,1-2.17.84,3.19,3.19,0,0,1,0-6.38,3.84,3.84,0,0,1,2.29.83l-.38.8A3.46,3.46,0,0,0,61.48,42.22Z"/><path d="M67.35,42.22a2.12,2.12,0,0,0-2,2.31,2.07,2.07,0,0,0,2,2.19A3,3,0,0,0,69.14,46l.38.8a3.57,3.57,0,0,1-2.17.84,3.19,3.19,0,0,1,0-6.38,3.84,3.84,0,0,1,2.29.83l-.38.8A3.49,3.49,0,0,0,67.35,42.22Z"/><circle cx="400.51" cy="55.55" r="1.59"/><circle cx="386.19" cy="63.82" r="1.59"/><circle cx="386.19" cy="80.35" r="1.59"/><circle cx="400.51" cy="88.62" r="1.59"/><circle cx="414.82" cy="80.35" r="1.59"/><circle cx="414.82" cy="63.82" r="1.59"/><line class="cls-8" x1="400.51" y1="72.08" x2="400.51" y2="59.28"/><path d="M192.35,122.27h-2v3.17H189.3v-8.58h3a2.63,2.63,0,0,1,2.78,2.73A2.69,2.69,0,0,1,192.35,122.27Zm0-4.4h-2v3.46h1.95a1.8,1.8,0,0,0,1.79-1.73A1.65,1.65,0,0,0,192.39,117.87Z"/><path d="M199,124.65a3.5,3.5,0,0,0,2-.66l.3.81a3.94,3.94,0,0,1-2.29.74,2.9,2.9,0,0,1-3-3.15c0-2.17,1.31-3.23,2.92-3.23,2,0,2.83,1.28,2.83,3.44H197A2,2,0,0,0,199,124.65Zm-2-2.88h3.75a1.79,1.79,0,0,0-1.84-1.77A2,2,0,0,0,197,121.77Z"/><path d="M205.75,120.1c-.66,0-1.24.58-1.84,1.26h0v4.09h-1v-6.19h1v.93a2.8,2.8,0,0,1,1.87-1,1.39,1.39,0,0,1,.75.16l-.12,1.12A1,1,0,0,0,205.75,120.1Z"/><path d="M208.52,118.05a.59.59,0,0,1-.58-.61.59.59,0,1,1,1.17,0A.6.6,0,0,1,208.52,118.05Zm-.49,1.2h1v6.19h-1Z"/><path d="M213.19,125.54a2.85,2.85,0,0,1-2.91-3.17,2.91,2.91,0,1,1,5.8,0C216.08,124.46,214.82,125.54,213.19,125.54Zm0-5.45a2.28,2.28,0,0,0,0,4.5,2,2,0,0,0,1.9-2.23A2,2,0,0,0,213.19,120.09Z"/><path d="M221.37,125a2.87,2.87,0,0,1-1.61.59,2.92,2.92,0,0,1-2.88-3.09,3.08,3.08,0,0,1,2.86-3.38,2.75,2.75,0,0,1,1.63.55v-3h.95v8.85h-.95ZM219.8,120a2.19,2.19,0,0,0-2,2.41,2,2,0,0,0,2,2.18,2.24,2.24,0,0,0,1.57-.84v-3A2.3,2.3,0,0,0,219.8,120Z"/><path d="M71.18,105.48l-1,1.85-.74-.53,1.83-3.3h.88V112h-1Z"/><path d="M77,112.06a5,5,0,0,1-2.89-1l.38-.83a4.55,4.55,0,0,0,2.51.91c1.18,0,2.25-.52,2.25-1.74a1.71,1.71,0,0,0-1.85-1.84,3.22,3.22,0,0,0-2.31.77h-.9l.45-4.76h5.15v.92H75.45c-.11,1-.19,1.88-.3,2.84a3.73,3.73,0,0,1,2.24-.62,2.58,2.58,0,0,1,2.82,2.71C80.21,111.62,78.11,112.06,77,112.06Z"/><path d="M84.53,112.06c-1.77,0-3.43-1.54-3.43-4.18,0-2.87,1.66-4.39,3.43-4.39S88,105,88,107.88C88,110.52,86.32,112.06,84.53,112.06Zm0-7.64c-1.32,0-2.43,1.24-2.43,3.46,0,2,1.11,3.25,2.43,3.25S87,109.88,87,107.88C87,105.67,85.85,104.42,84.53,104.42Z"/><path d="M92.23,112.06c-1.78,0-3.43-1.54-3.43-4.18,0-2.87,1.65-4.39,3.43-4.39s3.44,1.52,3.44,4.39C95.67,110.52,94,112.06,92.23,112.06Zm0-7.64c-1.32,0-2.44,1.24-2.44,3.46,0,2,1.12,3.25,2.44,3.25s2.43-1.25,2.43-3.25C94.66,105.67,93.55,104.42,92.23,104.42Z"/><path d="M100.89,111.58l0-.06a1.05,1.05,0,0,1-.15-.3,2.68,2.68,0,0,1-1.9.92,1.79,1.79,0,0,1-1.3-.58v2.93h-1v-8.72h1v4a1.41,1.41,0,0,0,1.34,1.44,3,3,0,0,0,1.82-1.11v-4.32h1v4.59c0,.47.11.75.3.82h0a.64.64,0,0,0,.5-.09l.06.81-.61.14A1.16,1.16,0,0,1,100.89,111.58Z"/><path d="M105.64,112.06a4.25,4.25,0,0,1-2.41-.87l.21-.89a3.67,3.67,0,0,0,2.2.9c.6,0,1.63-.21,1.63-1s-1-.9-1.58-.9c-.88,0-2.63-.27-2.63-1.61,0-1.67,1.69-2,2.63-2a3.31,3.31,0,0,1,2.27.76l-.21.89a3.3,3.3,0,0,0-2.06-.8c-.66,0-1.68.22-1.68,1.12,0,.59,1.12.78,1.68.78.91,0,2.57.3,2.57,1.77S106.47,112.06,105.64,112.06Z"/><path d="M194.82,108.76l-.21.08h0c-.78.35-1.74.81-1.92,2h4.69v.92h-5.75c0-.07,0-.25,0-.42a4.44,4.44,0,0,1,0-.49c.42-1.78,1.6-2.35,2.86-2.92.71-.33,2-.91,2-2a1.83,1.83,0,0,0-2-1.82A3.91,3.91,0,0,0,192,105l-.39-.83a4.38,4.38,0,0,1,2.83-1,2.8,2.8,0,0,1,3,2.75C197.48,107.64,195.87,108.29,194.82,108.76Z"/><path d="M201.71,111.82c-1.78,0-3.43-1.55-3.43-4.19,0-2.86,1.65-4.39,3.43-4.39s3.44,1.53,3.44,4.39C205.15,110.27,203.49,111.82,201.71,111.82Zm0-7.64c-1.32,0-2.44,1.23-2.44,3.45,0,2,1.12,3.25,2.44,3.25s2.43-1.24,2.43-3.25C204.14,105.43,203,104.18,201.71,104.18Z"/><path d="M214.66,108.15c0-1.29-.47-1.79-1.34-1.79a3.39,3.39,0,0,0-1.87,1.07,3.73,3.73,0,0,1,0,.5v3.79h-1v-3.57c0-1.29-.48-1.79-1.35-1.79a3.38,3.38,0,0,0-1.86,1.1v4.26h-1v-6.19h1v.84a3,3,0,0,1,1.89-.93,2.16,2.16,0,0,1,2,1.15,3.35,3.35,0,0,1,2.12-1.15,2.18,2.18,0,0,1,2.31,2.49v3.79h-1Z"/><path d="M219.41,111.82a4.14,4.14,0,0,1-2.41-.88l.2-.88a3.77,3.77,0,0,0,2.21.89c.6,0,1.63-.21,1.63-1s-1-.9-1.59-.9c-.87,0-2.62-.28-2.62-1.62,0-1.67,1.69-2,2.62-2a3.36,3.36,0,0,1,2.27.75l-.2.89a3.35,3.35,0,0,0-2.07-.79c-.66,0-1.67.21-1.67,1.11,0,.59,1.11.78,1.67.78.92,0,2.57.3,2.57,1.78S220.23,111.82,219.41,111.82Z"/><circle class="cls-2" cx="400.27" cy="178.93" r="23.67"/><polyline class="cls-3" points="372.12 198.12 76.88 198.12 76.88 143.55"/><polyline class="cls-4" points="76.88 151.13 111.87 151.13 111.87 198.12 308.89 198.12 308.89 151.13 343.64 151.13 343.64 198.12 368.01 198.12"/><line class="cls-5" x1="76.88" y1="201.4" x2="308.11" y2="201.4"/><line class="cls-6" x1="76.88" y1="205.56" x2="111.34" y2="205.56"/><circle cx="76.68" cy="205.56" r="1.14"/><circle cx="112" cy="205.56" r="1.14"/><circle class="cls-7" cx="76.68" cy="201.4" r="1.14"/><circle class="cls-7" cx="307.71" cy="201.4" r="1.14"/><circle cx="400.27" cy="162.4" r="1.59"/><circle cx="385.95" cy="170.67" r="1.59"/><circle cx="385.95" cy="187.2" r="1.59"/><circle cx="400.27" cy="195.46" r="1.59"/><circle cx="414.58" cy="187.2" r="1.59"/><circle cx="414.58" cy="170.67" r="1.59"/><line class="cls-8" x1="400.27" y1="178.93" x2="413.08" y2="178.93"/><path d="M192.11,229.12h-2v3.17h-1.06v-8.58h3a2.63,2.63,0,0,1,2.78,2.72A2.69,2.69,0,0,1,192.11,229.12Zm0-4.4h-2v3.45h1.95a1.79,1.79,0,0,0,1.79-1.72A1.65,1.65,0,0,0,192.15,224.72Z"/><path d="M198.77,231.5a3.5,3.5,0,0,0,2-.66l.3.81a3.94,3.94,0,0,1-2.29.73,2.89,2.89,0,0,1-3-3.14c0-2.17,1.31-3.24,2.92-3.24,2,0,2.83,1.29,2.83,3.45h-4.76A2,2,0,0,0,198.77,231.5Zm-2-2.88h3.74a1.79,1.79,0,0,0-1.84-1.78A2,2,0,0,0,196.8,228.62Z"/><path d="M205.51,227c-.66,0-1.24.58-1.84,1.26h0v4.09h-1V226.1h1V227a2.8,2.8,0,0,1,1.87-1,1.3,1.3,0,0,1,.75.17l-.12,1.12A1,1,0,0,0,205.51,227Z"/><path d="M208.28,224.9a.59.59,0,0,1-.58-.61.59.59,0,1,1,1.17,0A.6.6,0,0,1,208.28,224.9Zm-.49,1.2h1v6.19h-1Z"/><path d="M213,232.38a2.84,2.84,0,0,1-2.91-3.16,2.92,2.92,0,1,1,5.8,0A2.82,2.82,0,0,1,213,232.38Zm0-5.44a2.28,2.28,0,0,0,0,4.5,2.28,2.28,0,0,0,0-4.5Z"/><path d="M221.13,231.8a2.86,2.86,0,0,1-1.61.58,2.92,2.92,0,0,1-2.88-3.08,3.08,3.08,0,0,1,2.86-3.38,2.75,2.75,0,0,1,1.63.55v-3h1v8.85h-1Zm-1.57-5a2.2,2.2,0,0,0-2,2.42,2,2,0,0,0,2,2.18,2.24,2.24,0,0,0,1.57-.84v-3A2.31,2.31,0,0,0,219.56,226.85Z"/><path d="M72.09,215.85l-.2.09h0c-.78.34-1.74.8-1.92,2h4.69v.93H68.92c0-.07,0-.25,0-.42a4.46,4.46,0,0,1,0-.49c.42-1.79,1.61-2.35,2.87-2.93.7-.32,2-.91,2-2a1.83,1.83,0,0,0-2-1.82,3.87,3.87,0,0,0-2.43.86l-.4-.82a4.36,4.36,0,0,1,2.83-1,2.8,2.8,0,0,1,3,2.74C74.75,214.74,73.15,215.39,72.09,215.85Z"/><path d="M79,218.91c-1.78,0-3.43-1.55-3.43-4.18,0-2.87,1.65-4.39,3.43-4.39s3.44,1.52,3.44,4.39C82.42,217.36,80.77,218.91,79,218.91Zm0-7.64c-1.32,0-2.44,1.24-2.44,3.46,0,2,1.12,3.25,2.44,3.25s2.43-1.25,2.43-3.25C81.41,212.52,80.3,211.27,79,211.27Z"/><path d="M86.67,218.91c-1.77,0-3.43-1.55-3.43-4.18,0-2.87,1.66-4.39,3.43-4.39s3.44,1.52,3.44,4.39C90.11,217.36,88.46,218.91,86.67,218.91Zm0-7.64c-1.32,0-2.43,1.24-2.43,3.46,0,2,1.11,3.25,2.43,3.25s2.44-1.25,2.44-3.25C89.11,212.52,88,211.27,86.67,211.27Z"/><path d="M94.36,218.91c-1.77,0-3.43-1.55-3.43-4.18,0-2.87,1.66-4.39,3.43-4.39s3.44,1.52,3.44,4.39C97.8,217.36,96.15,218.91,94.36,218.91Zm0-7.64c-1.32,0-2.43,1.24-2.43,3.46,0,2,1.11,3.25,2.43,3.25s2.44-1.25,2.44-3.25C96.8,212.52,95.68,211.27,94.36,211.27Z"/><path d="M103,218.43l0-.06a1.77,1.77,0,0,1-.16-.3,2.63,2.63,0,0,1-1.89.91,1.82,1.82,0,0,1-1.31-.57v2.92h-.95v-8.72h.95v4a1.43,1.43,0,0,0,1.34,1.44,2.92,2.92,0,0,0,1.83-1.12v-4.32h1v4.6q0,.71.3.81h0a.62.62,0,0,0,.51-.08l.06.8-.62.15A1.14,1.14,0,0,1,103,218.43Z"/><path d="M107.78,218.91a4.25,4.25,0,0,1-2.41-.87l.2-.89a3.72,3.72,0,0,0,2.21.9c.6,0,1.63-.22,1.63-1s-1-.9-1.58-.9c-.88,0-2.63-.28-2.63-1.62,0-1.67,1.69-2,2.63-2a3.33,3.33,0,0,1,2.26.75l-.2.89a3.35,3.35,0,0,0-2.06-.79c-.66,0-1.68.22-1.68,1.12,0,.58,1.11.78,1.68.78.91,0,2.56.3,2.56,1.77S108.61,218.91,107.78,218.91Z"/><path d="M194.54,215.85l-.21.09h0a2.69,2.69,0,0,0-1.91,2h4.68v.93h-5.74c0-.07,0-.25,0-.42a2.82,2.82,0,0,1,0-.49c.42-1.79,1.6-2.35,2.86-2.93.71-.32,2-.91,2-2a1.83,1.83,0,0,0-2-1.82,3.89,3.89,0,0,0-2.44.86l-.39-.82a4.33,4.33,0,0,1,2.83-1,2.8,2.8,0,0,1,3,2.74C197.2,214.74,195.59,215.39,194.54,215.85Z"/><path d="M201.42,218.91c-1.77,0-3.43-1.55-3.43-4.18,0-2.87,1.66-4.39,3.43-4.39s3.45,1.52,3.45,4.39C204.87,217.36,203.21,218.91,201.42,218.91Zm0-7.64c-1.31,0-2.43,1.24-2.43,3.46,0,2,1.12,3.25,2.43,3.25s2.44-1.25,2.44-3.25C203.86,212.52,202.74,211.27,201.42,211.27Z"/><path d="M214.38,215.24c0-1.28-.47-1.79-1.34-1.79a3.39,3.39,0,0,0-1.87,1.07,4,4,0,0,1,0,.51v3.79h-1v-3.58c0-1.28-.48-1.79-1.35-1.79a3.4,3.4,0,0,0-1.86,1.11v4.26h-1v-6.19h1v.84a2.94,2.94,0,0,1,1.89-.94,2.16,2.16,0,0,1,2,1.15,3.35,3.35,0,0,1,2.12-1.15,2.18,2.18,0,0,1,2.3,2.5v3.79h-1Z"/><path d="M219.12,218.91a4.25,4.25,0,0,1-2.41-.87l.21-.89a3.72,3.72,0,0,0,2.2.9c.6,0,1.64-.22,1.64-1s-1-.9-1.59-.9c-.87,0-2.62-.28-2.62-1.62,0-1.67,1.69-2,2.62-2a3.36,3.36,0,0,1,2.27.75l-.2.89a3.37,3.37,0,0,0-2.07-.79c-.66,0-1.68.22-1.68,1.12,0,.58,1.12.78,1.68.78.91,0,2.57.3,2.57,1.77S220,218.91,219.12,218.91Z"/><circle class="cls-2" cx="399.69" cy="285.78" r="23.67"/><polyline class="cls-3" points="371.55 304.97 76.31 304.97 76.31 250.4"/><polyline class="cls-4" points="76.31 257.98 86.94 257.98 86.94 304.97 308.31 304.97 308.31 257.98 318.84 257.98 318.84 304.97 367.44 304.97"/><line class="cls-5" x1="76.31" y1="308.24" x2="307.54" y2="308.24"/><line class="cls-6" x1="76.31" y1="312.41" x2="86.94" y2="312.41"/><circle cx="76.11" cy="312.41" r="1.14"/><circle cx="86.94" cy="312.41" r="1.14"/><circle class="cls-7" cx="76.11" cy="308.24" r="1.14"/><circle class="cls-7" cx="307.13" cy="308.24" r="1.14"/><circle cx="399.69" cy="269.25" r="1.59"/><circle cx="385.38" cy="277.52" r="1.59"/><circle cx="385.38" cy="294.05" r="1.59"/><circle cx="399.69" cy="302.31" r="1.59"/><circle cx="414.01" cy="294.05" r="1.59"/><circle cx="414.01" cy="277.52" r="1.59"/><line class="cls-8" x1="399.69" y1="285.78" x2="386.89" y2="285.78"/><path d="M191.54,336h-2v3.17h-1.07v-8.58h3a2.63,2.63,0,0,1,2.78,2.72A2.7,2.7,0,0,1,191.54,336Zm0-4.4h-2V335h1.94a1.79,1.79,0,0,0,1.8-1.73A1.65,1.65,0,0,0,191.58,331.57Z"/><path d="M198.2,338.34a3.43,3.43,0,0,0,2-.66l.3.82a4,4,0,0,1-2.29.73,2.9,2.9,0,0,1-3-3.14c0-2.17,1.32-3.24,2.93-3.24,2,0,2.83,1.28,2.83,3.44H196.2A2,2,0,0,0,198.2,338.34Zm-2-2.87H200a1.8,1.8,0,0,0-1.84-1.78A2,2,0,0,0,196.22,335.47Z"/><path d="M204.93,333.8c-.65,0-1.23.57-1.83,1.26h0v4.09h-1V333h1v.92a2.8,2.8,0,0,1,1.87-1,1.3,1.3,0,0,1,.75.17l-.12,1.11A1,1,0,0,0,204.93,333.8Z"/><path d="M207.71,331.75a.6.6,0,0,1-.58-.61.59.59,0,1,1,1.17,0A.6.6,0,0,1,207.71,331.75Zm-.49,1.2h1v6.19h-1Z"/><path d="M212.37,339.23a2.84,2.84,0,0,1-2.9-3.16c0-2.06,1.26-3.22,2.9-3.22s2.9,1.16,2.9,3.22A2.83,2.83,0,0,1,212.37,339.23Zm0-5.44a2.27,2.27,0,0,0,0,4.49,2,2,0,0,0,1.91-2.23A2,2,0,0,0,212.37,333.79Z"/><path d="M220.56,338.64a2.8,2.8,0,0,1-1.61.59,2.92,2.92,0,0,1-2.88-3.08,3.08,3.08,0,0,1,2.86-3.38,2.69,2.69,0,0,1,1.63.55v-3h.95v8.86h-.95ZM219,333.7a2.19,2.19,0,0,0-2,2.41,2,2,0,0,0,2,2.19,2.24,2.24,0,0,0,1.57-.84v-3A2.37,2.37,0,0,0,219,333.7Z"/><path d="M70.37,319.18l-1,1.84-.74-.53,1.83-3.29h.88v8.46h-1Z"/><path d="M76.53,325.76c-1.77,0-3.43-1.55-3.43-4.19,0-2.86,1.66-4.39,3.43-4.39S80,318.71,80,321.57C80,324.21,78.32,325.76,76.53,325.76Zm0-7.64c-1.32,0-2.43,1.24-2.43,3.45,0,2,1.11,3.25,2.43,3.25S79,323.58,79,321.57C79,319.37,77.85,318.12,76.53,318.12Z"/><path d="M84.23,325.76c-1.78,0-3.43-1.55-3.43-4.19,0-2.86,1.65-4.39,3.43-4.39s3.44,1.53,3.44,4.39C87.67,324.21,86,325.76,84.23,325.76Zm0-7.64c-1.32,0-2.44,1.24-2.44,3.45,0,2,1.12,3.25,2.44,3.25s2.43-1.24,2.43-3.25C86.66,319.37,85.55,318.12,84.23,318.12Z"/><path d="M91.92,325.76c-1.78,0-3.43-1.55-3.43-4.19,0-2.86,1.65-4.39,3.43-4.39s3.44,1.53,3.44,4.39C95.36,324.21,93.71,325.76,91.92,325.76Zm0-7.64c-1.32,0-2.44,1.24-2.44,3.45,0,2,1.12,3.25,2.44,3.25s2.43-1.24,2.43-3.25C94.35,319.37,93.24,318.12,91.92,318.12Z"/><path d="M100.58,325.28l0-.06a1.26,1.26,0,0,1-.16-.3,2.69,2.69,0,0,1-1.9.91,1.78,1.78,0,0,1-1.3-.57v2.92h-1v-8.72h1v4a1.43,1.43,0,0,0,1.34,1.44,2.9,2.9,0,0,0,1.82-1.12v-4.32h1v4.6c0,.47.11.74.3.81h0a.6.6,0,0,0,.5-.08l.06.8-.61.15A1.18,1.18,0,0,1,100.58,325.28Z"/><path d="M105.33,325.76a4.19,4.19,0,0,1-2.41-.88l.21-.88a3.69,3.69,0,0,0,2.2.9c.6,0,1.64-.22,1.64-1s-1-.9-1.59-.9c-.87,0-2.62-.28-2.62-1.62,0-1.67,1.69-2,2.62-2a3.36,3.36,0,0,1,2.27.75l-.2.89a3.37,3.37,0,0,0-2.07-.79c-.66,0-1.68.22-1.68,1.11,0,.59,1.12.78,1.68.78.91,0,2.57.3,2.57,1.78S106.16,325.76,105.33,325.76Z"/><path d="M194,322.46l-.21.08h0c-.78.35-1.73.8-1.91,2h4.68v.92h-5.74c0-.07,0-.25,0-.42a2.82,2.82,0,0,1,0-.49c.42-1.79,1.6-2.35,2.86-2.93.71-.32,2-.91,2-1.95a1.84,1.84,0,0,0-2-1.83,3.91,3.91,0,0,0-2.44.87l-.39-.83a4.33,4.33,0,0,1,2.83-1,2.8,2.8,0,0,1,3,2.74C196.67,321.34,195.06,322,194,322.46Z"/><path d="M200.89,325.51c-1.77,0-3.43-1.54-3.43-4.18,0-2.87,1.66-4.39,3.43-4.39s3.45,1.52,3.45,4.39C204.34,324,202.68,325.51,200.89,325.51Zm0-7.64c-1.32,0-2.43,1.24-2.43,3.46,0,2,1.11,3.25,2.43,3.25s2.44-1.25,2.44-3.25C203.33,319.12,202.21,317.87,200.89,317.87Z"/><path d="M213.85,321.84c0-1.28-.47-1.78-1.34-1.78a3.37,3.37,0,0,0-1.87,1.06,4,4,0,0,1,0,.51v3.79h-1v-3.58c0-1.28-.48-1.78-1.35-1.78a3.35,3.35,0,0,0-1.86,1.1v4.26h-1v-6.19h1v.84a2.94,2.94,0,0,1,1.89-.94,2.16,2.16,0,0,1,2,1.15,3.35,3.35,0,0,1,2.12-1.15,2.18,2.18,0,0,1,2.3,2.5v3.79h-1Z"/><path d="M218.59,325.51a4.25,4.25,0,0,1-2.41-.87l.21-.89a3.72,3.72,0,0,0,2.2.9c.6,0,1.64-.22,1.64-1s-1-.9-1.59-.9c-.87,0-2.62-.27-2.62-1.62,0-1.66,1.69-2,2.62-2a3.31,3.31,0,0,1,2.27.76l-.2.88a3.37,3.37,0,0,0-2.07-.79c-.66,0-1.68.22-1.68,1.12,0,.59,1.12.78,1.68.78.91,0,2.57.3,2.57,1.77S219.42,325.51,218.59,325.51Z"/><path d="M62.3,228.73h-2v3.16H59.24v-8.57h3A2.63,2.63,0,0,1,65.05,226,2.69,2.69,0,0,1,62.3,228.73Zm0-4.4h-2v3.45h2a1.8,1.8,0,0,0,1.8-1.73A1.65,1.65,0,0,0,62.33,224.33Z"/><path d="M70.47,231.07a3.34,3.34,0,0,1-2,.91,2.45,2.45,0,0,1-1.39-.4,2.34,2.34,0,0,1-.92-1.81v-4.06h1v3.94a1.5,1.5,0,0,0,.47,1.12,1.75,1.75,0,0,0,.91.29,3.43,3.43,0,0,0,2-1.12v-4.23h1v6.18h-1Z"/><path d="M73,223h1v8.85H73Z"/><path d="M77.86,232a4.19,4.19,0,0,1-2.41-.88l.2-.88a3.72,3.72,0,0,0,2.21.9c.6,0,1.63-.22,1.63-1s-1-.9-1.58-.9c-.88,0-2.63-.28-2.63-1.62,0-1.67,1.69-2,2.63-2a3.33,3.33,0,0,1,2.26.75l-.2.89a3.35,3.35,0,0,0-2.06-.79c-.66,0-1.68.22-1.68,1.12,0,.58,1.11.77,1.68.77.91,0,2.56.3,2.56,1.78S78.69,232,77.86,232Z"/><path d="M84.25,231.1a3.43,3.43,0,0,0,2-.66l.3.82a4,4,0,0,1-2.29.73,2.89,2.89,0,0,1-3-3.14c0-2.17,1.32-3.24,2.92-3.24,2,0,2.83,1.28,2.83,3.44H82.25A2,2,0,0,0,84.25,231.1Zm-2-2.88H86a1.79,1.79,0,0,0-1.84-1.77A2,2,0,0,0,82.28,228.22Z"/><path d="M96.3,231.92l-1.69-4.67L93,231.92h-.77l-2-6.21h1l1.43,4.49,1.61-4.47H95l1.66,4.53L98,225.71h1l-1.87,6.21Z"/><path d="M100.72,224.51a.6.6,0,0,1-.58-.61.59.59,0,1,1,1.17,0A.6.6,0,0,1,100.72,224.51Zm-.49,1.2h1v6.18h-1Z"/><path d="M106.93,231.4a2.84,2.84,0,0,1-1.6.59,2.91,2.91,0,0,1-2.88-3.08,3.08,3.08,0,0,1,2.85-3.38,2.66,2.66,0,0,1,1.63.55v-3h.95v8.85h-.95Zm-1.57-4.94a2.18,2.18,0,0,0-2,2.41,2,2,0,0,0,2,2.19,2.24,2.24,0,0,0,1.57-.84l0-3A2.37,2.37,0,0,0,105.36,226.46Z"/><path d="M111.63,231.93a1.53,1.53,0,0,1-1.15-.47,2.55,2.55,0,0,1-.7-1.78v-3.15h-.94v-.82h.94v-1.35l1-.66v2h1.85v.82h-1.85v3a2,2,0,0,0,.36,1.1.91.91,0,0,0,.58.3,1.86,1.86,0,0,0,.93-.48l.22.9A1.7,1.7,0,0,1,111.63,231.93Z"/><path d="M118.07,228.32c0-.82-.16-1.27-.48-1.51a1.38,1.38,0,0,0-.9-.28,3.45,3.45,0,0,0-2,1.16v4.2h-1V223h1v3.54a3.25,3.25,0,0,1,2-1,2.16,2.16,0,0,1,2.3,2.49v3.79h-1Z"/><path d="M60.26,335h-2v3.17H57.2v-8.58h3A2.63,2.63,0,0,1,63,332.28,2.7,2.7,0,0,1,60.26,335Zm0-4.4h-2V334h1.94a1.8,1.8,0,0,0,1.8-1.73A1.65,1.65,0,0,0,60.3,330.57Z"/><path d="M68.43,337.31a3.34,3.34,0,0,1-2,.91,2.38,2.38,0,0,1-1.39-.4,2.32,2.32,0,0,1-.93-1.81V332h1v3.94a1.5,1.5,0,0,0,.47,1.12,1.78,1.78,0,0,0,.91.29,3.4,3.4,0,0,0,2-1.12V332h1v6.19h-1Z"/><path d="M71,329.28h1v8.86H71Z"/><path d="M75.82,338.23a4.25,4.25,0,0,1-2.41-.87l.21-.89a3.69,3.69,0,0,0,2.2.9c.6,0,1.63-.22,1.63-1s-1-.9-1.58-.9c-.87,0-2.63-.27-2.63-1.62,0-1.67,1.7-2,2.63-2a3.36,3.36,0,0,1,2.27.75l-.21.89a3.35,3.35,0,0,0-2.06-.79c-.66,0-1.68.22-1.68,1.12,0,.58,1.12.78,1.68.78.91,0,2.57.3,2.57,1.77S76.65,338.23,75.82,338.23Z"/><path d="M82.22,337.34a3.42,3.42,0,0,0,2-.66l.3.82a4,4,0,0,1-2.29.73,2.89,2.89,0,0,1-3-3.14c0-2.17,1.32-3.24,2.93-3.24,2,0,2.83,1.28,2.83,3.44H80.21A2.05,2.05,0,0,0,82.22,337.34Zm-2-2.87H84a1.79,1.79,0,0,0-1.83-1.78A2,2,0,0,0,80.24,334.47Z"/><path d="M94.26,338.16l-1.69-4.67L91,338.16h-.76l-2-6.21h1l1.42,4.5L92.2,332H93l1.65,4.53L96,332h1L95,338.16Z"/><path d="M98.68,330.75a.59.59,0,0,1-.57-.61.58.58,0,1,1,1.16,0A.6.6,0,0,1,98.68,330.75Zm-.49,1.2h1v6.19h-1Z"/><path d="M104.9,337.64a2.82,2.82,0,0,1-1.61.59,2.92,2.92,0,0,1-2.88-3.08,3.08,3.08,0,0,1,2.86-3.38,2.71,2.71,0,0,1,1.63.55v-3h.94v8.86h-.94Zm-1.57-4.94a2.19,2.19,0,0,0-2,2.41,2,2,0,0,0,2,2.19,2.24,2.24,0,0,0,1.57-.84v-3A2.37,2.37,0,0,0,103.33,332.7Z"/><path d="M109.59,338.17a1.55,1.55,0,0,1-1.15-.47,2.55,2.55,0,0,1-.7-1.78v-3.14h-.93V332h.93V330.6l1-.66v2h1.84v.83h-1.84v3a1.93,1.93,0,0,0,.36,1.1.87.87,0,0,0,.57.3,1.92,1.92,0,0,0,.94-.48l.21.9A1.68,1.68,0,0,1,109.59,338.17Z"/><path d="M116,334.56c0-.81-.15-1.27-.48-1.51a1.36,1.36,0,0,0-.9-.27,3.38,3.38,0,0,0-2,1.15v4.21h-1v-8.86h1v3.54a3.25,3.25,0,0,1,2-1,2.16,2.16,0,0,1,2.31,2.5v3.79h-1Z"/><path d="M56.37,201.83c-1.77,0-3.43-1.55-3.43-4.19,0-2.86,1.66-4.39,3.43-4.39s3.45,1.53,3.45,4.39C59.82,200.28,58.16,201.83,56.37,201.83Zm0-7.64c-1.32,0-2.43,1.23-2.43,3.45,0,2,1.11,3.25,2.43,3.25s2.44-1.24,2.44-3.25C58.81,195.44,57.69,194.19,56.37,194.19Z"/><path d="M63.81,201.74l-3.32-8.47v-.11h1.06l2.72,7,2.66-7h1v.11l-3.27,8.47Z"/><path d="M53.9,154.55l-3.33-8.48V146h1.06l2.72,7L57,146h1v.11l-3.28,8.48Z"/><path d="M61.48,149.17a2.12,2.12,0,0,0-2,2.31,2.07,2.07,0,0,0,2,2.19,3,3,0,0,0,1.79-.68l.38.8a3.57,3.57,0,0,1-2.17.84,3.19,3.19,0,0,1,0-6.38,3.84,3.84,0,0,1,2.29.83l-.38.8A3.46,3.46,0,0,0,61.48,149.17Z"/><path d="M67.35,149.17a2.12,2.12,0,0,0-2,2.31,2.07,2.07,0,0,0,2,2.19,3,3,0,0,0,1.79-.68l.38.8a3.57,3.57,0,0,1-2.17.84,3.19,3.19,0,0,1,0-6.38,3.84,3.84,0,0,1,2.29.83l-.38.8A3.49,3.49,0,0,0,67.35,149.17Z"/><path d="M56.37,307.88c-1.77,0-3.43-1.55-3.43-4.19,0-2.87,1.66-4.39,3.43-4.39s3.45,1.52,3.45,4.39C59.82,306.33,58.16,307.88,56.37,307.88Zm0-7.64c-1.32,0-2.43,1.23-2.43,3.45,0,2,1.11,3.25,2.43,3.25s2.44-1.25,2.44-3.25C58.81,301.48,57.69,300.24,56.37,300.24Z"/><path d="M63.81,307.79l-3.32-8.48v-.1h1.06l2.72,7,2.66-7h1v.1l-3.27,8.48Z"/><path d="M53.9,260.59l-3.33-8.48V252h1.06l2.72,7L57,252h1v.1l-3.28,8.48Z"/><path d="M61.48,255.22a2.11,2.11,0,0,0-2,2.3,2.07,2.07,0,0,0,2,2.2,2.92,2.92,0,0,0,1.79-.69l.38.81a3.63,3.63,0,0,1-2.17.84,3.19,3.19,0,0,1,0-6.38,3.89,3.89,0,0,1,2.29.82l-.38.81A3.46,3.46,0,0,0,61.48,255.22Z"/><path d="M67.35,255.22a2.11,2.11,0,0,0-2,2.3,2.07,2.07,0,0,0,2,2.2,2.92,2.92,0,0,0,1.79-.69l.38.81a3.63,3.63,0,0,1-2.17.84,3.19,3.19,0,0,1,0-6.38,3.89,3.89,0,0,1,2.29.82l-.38.81A3.49,3.49,0,0,0,67.35,255.22Z"/></svg>